# xmcd
#
# Track frame offsets:
#	150
#	15548
#	28301
#	41568
#	53153
#	67167
#	81624
#	96066
#	109188
#	121809
#	136543
#	150217
#	164371
#	179428
#	192544
#	208824
#	221452
#	236487
#	248935
#	261805
#	276299
#	290436
#	305522
#	320246
#
# Disc length: 4444 seconds
#
# Revision: 0
# Processed by: cddbd v1.5.1PL0 Copyright (c) Steve Scherf et al.
# Submitted via: dBpowerAMP V4.0
#
DISCID=66115a18
DTITLE=Casey Bill Weldon - Guitar Swing
DYEAR=2002
DGENRE=Blues
TTITLE0=Two Timin' Woman
TTITLE1=Rooster Blues
TTITLE2=Guitar Swing
TTITLE3=Has My Gal Been Here
TTITLE4=Front Door Blues
TTITLE5=Back Door Blues
TTITLE6=The Big Boat
TTITLE7=My Stove Won't Work
TTITLE8=Brown Skin Mama
TTITLE9=W.P.A. Blues
TTITLE10=I Believe I'll Make A Change
TTITLE11=Did You Mean What You Said
TTITLE12=Somebody Changed the Lock On My Door
TTITLE13=Red Hot Blues
TTITLE14=I'm a Stranger
TTITLE15=Go Ahead Buddy
TTITLE16=Blues Everywhere I Go
TTITLE17=Arlena
TTITLE18=Casy Bill's New WPA Blues
TTITLE19=Can't Your Remember
TTITLE20=Just As Well Let Her Go
TTITLE21=I'm Just a Bad Luck Man
TTITLE22=I Believe You're Cheatin' On Me
TTITLE23=Round and Round
EXTD=
EXTT0=
EXTT1=
EXTT2=
EXTT3=
EXTT4=
EXTT5=
EXTT6=
EXTT7=
EXTT8=
EXTT9=
EXTT10=
EXTT11=
EXTT12=
EXTT13=
EXTT14=
EXTT15=
EXTT16=
EXTT17=
EXTT18=
EXTT19=
EXTT20=
EXTT21=
EXTT22=
EXTT23=
PLAYORDER=
